<svg width="250" height="74" viewBox="0 0 250 74" fill="none" xmlns="http://www.w3.org/2000/svg">
<g clip-path="url(#clip0_363_1849)">
<path d="M240.835 0H9.1541C4.03479 0 -0.115234 4.14195 -0.115234 9.2513V64.7487C-0.115234 69.858 4.03479 74 9.1541 74H240.835C245.954 74 250.104 69.858 250.104 64.7487V9.2513C250.104 4.14195 245.954 0 240.835 0Z" fill="#111111"/>
<path d="M240.846 1.48271C245.135 1.48271 248.629 4.97023 248.629 9.2513V64.7487C248.629 69.0298 245.135 72.5173 240.846 72.5173H9.1541C4.86468 72.5173 1.37037 69.0298 1.37037 64.7487V9.2513C1.37037 4.97023 4.86468 1.48271 9.1541 1.48271H240.846ZM240.846 0H9.1541C4.0591 0 -0.115234 4.16622 -0.115234 9.2513V64.7487C-0.115234 69.8338 4.0591 74 9.1541 74H240.846C245.941 74 250.115 69.8338 250.115 64.7487V9.2513C250.115 4.16622 245.941 0 240.846 0Z" fill="#A6A6A6"/>
<path d="M87.7762 18.9513C87.7762 20.4967 87.3159 21.7393 86.3952 22.6581C85.349 23.7545 83.989 24.2975 82.3151 24.2975C80.6411 24.2975 79.3438 23.744 78.2244 22.6372C77.105 21.5304 76.54 20.1521 76.54 18.5023C76.54 16.8526 77.105 15.4847 78.2244 14.3674C79.3438 13.2606 80.7144 12.6968 82.3151 12.6968C83.1102 12.6968 83.8739 12.8534 84.5958 13.1562C85.3177 13.4695 85.9035 13.8767 86.3325 14.3988L85.3595 15.3803C84.6272 14.5032 83.6123 14.0646 82.3151 14.0646C81.1433 14.0646 80.1285 14.4719 79.2811 15.2967C78.4337 16.1216 78.0047 17.1867 78.0047 18.4919C78.0047 19.7971 78.4337 20.8726 79.2811 21.687C80.139 22.5119 81.1433 22.9192 82.3151 22.9192C83.56 22.9192 84.5958 22.5015 85.4223 21.6766C85.9558 21.1336 86.2697 20.3923 86.3534 19.4316H82.3151V18.0951H87.703C87.7553 18.3875 87.7762 18.659 87.7762 18.9304V18.9513Z" fill="white" stroke="white" stroke-width="0.2" stroke-miterlimit="10"/>
<path d="M96.3233 14.3154H91.2597V17.8343H95.8316V19.1708H91.2597V22.6896H96.3233V24.0575H89.8264V12.958H96.3233V14.3259V14.3154Z" fill="white" stroke="white" stroke-width="0.2" stroke-miterlimit="10"/>
<path d="M102.35 24.0467H100.916V14.3151H97.8091V12.9473H105.446V14.3151H102.339V24.0467H102.35Z" fill="white" stroke="white" stroke-width="0.2" stroke-miterlimit="10"/>
<path d="M110.981 24.0467V12.9473H112.404V24.0467H110.981Z" fill="white" stroke="white" stroke-width="0.2" stroke-miterlimit="10"/>
<path d="M118.754 24.0467H117.321V14.3151H114.213V12.9473H121.851V14.3151H118.743V24.0467H118.754Z" fill="white" stroke="white" stroke-width="0.2" stroke-miterlimit="10"/>
<path d="M136.32 22.6162C135.221 23.7439 133.872 24.2973 132.24 24.2973C130.607 24.2973 129.258 23.7334 128.159 22.6162C127.061 21.4989 126.517 20.1206 126.517 18.5021C126.517 16.8837 127.061 15.5054 128.159 14.3881C129.247 13.2604 130.607 12.707 132.24 12.707C133.872 12.707 135.211 13.2709 136.309 14.3986C137.408 15.5263 137.952 16.8941 137.952 18.5021C137.952 20.1102 137.408 21.4989 136.309 22.6162H136.32ZM129.227 21.6869C130.053 22.5222 131.057 22.9294 132.25 22.9294C133.443 22.9294 134.447 22.5117 135.274 21.6869C136.1 20.8515 136.508 19.7969 136.508 18.5021C136.508 17.2074 136.09 16.1423 135.274 15.3174C134.458 14.4821 133.443 14.0749 132.25 14.0749C131.057 14.0749 130.053 14.4926 129.227 15.3174C128.41 16.1528 127.992 17.2074 127.992 18.5021C127.992 19.7969 128.41 20.862 129.227 21.6869Z" fill="white" stroke="white" stroke-width="0.2" stroke-miterlimit="10"/>
<path d="M139.971 24.0467V12.9473H141.708L147.116 21.5825H147.179L147.116 19.442V12.9473H148.55V24.0467H147.054L141.394 14.9938H141.331L141.394 17.1344V24.0467H139.96H139.971Z" fill="white" stroke="white" stroke-width="0.2" stroke-miterlimit="10"/>
<path d="M126.182 40.242C121.82 40.242 118.273 43.552 118.273 48.1046C118.273 52.6572 121.83 55.9672 126.182 55.9672C130.535 55.9672 134.092 52.6258 134.092 48.1046C134.092 43.5834 130.535 40.242 126.182 40.242ZM126.182 52.8764C123.797 52.8764 121.736 50.9134 121.736 48.1046C121.736 45.2958 123.797 43.3328 126.182 43.3328C128.568 43.3328 130.629 45.2645 130.629 48.1046C130.629 50.9447 128.568 52.8764 126.182 52.8764ZM108.92 40.242C104.557 40.242 101.011 43.552 101.011 48.1046C101.011 52.6572 104.568 55.9672 108.92 55.9672C113.272 55.9672 116.829 52.6258 116.829 48.1046C116.829 43.5834 113.272 40.242 108.92 40.242ZM108.92 52.8764C106.535 52.8764 104.474 50.9134 104.474 48.1046C104.474 45.2958 106.535 43.3328 108.92 43.3328C111.305 43.3328 113.366 45.2645 113.366 48.1046C113.366 50.9447 111.305 52.8764 108.92 52.8764ZM88.3832 42.6541V45.9954H96.3867C96.146 47.8749 95.5183 49.2427 94.5663 50.2034C93.405 51.3624 91.5846 52.6467 88.3832 52.6467C83.4556 52.6467 79.6056 48.6789 79.6056 43.7609C79.6056 38.8428 83.4556 34.875 88.3832 34.875C91.0406 34.875 92.9865 35.9192 94.4093 37.2557L96.7738 34.8959C94.7755 32.9851 92.1182 31.5337 88.3832 31.5337C81.6353 31.5337 75.9648 37.0156 75.9648 43.7504C75.9648 50.4853 81.6353 55.9672 88.3832 55.9672C92.024 55.9672 94.7755 54.7768 96.9202 52.5423C99.1277 50.3391 99.8182 47.2379 99.8182 44.7319C99.8182 43.9593 99.7554 43.2388 99.6404 42.6436H88.3832V42.6541ZM172.362 45.2436C171.703 43.4894 169.704 40.2316 165.614 40.2316C161.523 40.2316 158.175 43.4163 158.175 48.0942C158.175 52.5005 161.523 55.9567 166.001 55.9567C169.61 55.9567 171.703 53.7535 172.571 52.4692L169.882 50.6837C168.983 51.9993 167.758 52.8555 166.001 52.8555C164.243 52.8555 162.988 52.0515 162.182 50.4749L172.728 46.1207L172.372 45.2227L172.362 45.2436ZM161.607 47.8644C161.513 44.8259 163.971 43.2701 165.729 43.2701C167.099 43.2701 168.271 43.9593 168.658 44.9408L161.607 47.8644ZM153.038 55.4973H156.501V32.369H153.038V55.4973ZM147.368 41.9962H147.253C146.479 41.0774 144.983 40.242 143.1 40.242C139.155 40.242 135.546 43.6982 135.546 48.1359C135.546 52.5736 139.155 55.9776 143.1 55.9776C144.983 55.9776 146.468 55.1423 147.253 54.1921H147.368V55.3198C147.368 58.327 145.757 59.935 143.152 59.935C141.028 59.935 139.72 58.4105 139.176 57.1366L136.163 58.3896C137.032 60.478 139.333 63.0362 143.152 63.0362C147.211 63.0362 150.643 60.6555 150.643 54.8395V40.7119H147.358V41.9962H147.368ZM143.392 52.8764C141.007 52.8764 138.998 50.8821 138.998 48.1359C138.998 45.3898 140.997 43.3328 143.392 43.3328C145.788 43.3328 147.609 45.3584 147.609 48.1359C147.609 50.9134 145.757 52.8764 143.392 52.8764ZM188.588 32.369H180.302V55.4973H183.765V46.7367H188.599C192.428 46.7367 196.205 43.9697 196.205 39.5529C196.205 35.1361 192.438 32.369 188.599 32.369H188.588ZM188.672 43.5207H183.755V35.5955H188.672C191.256 35.5955 192.721 37.736 192.721 39.5633C192.721 41.3906 191.256 43.5311 188.672 43.5311V43.5207ZM210.046 40.2003C207.545 40.2003 204.951 41.2966 203.873 43.74L206.949 45.0243C207.608 43.74 208.822 43.3328 210.109 43.3328C211.898 43.3328 213.718 44.4082 213.749 46.3086V46.5488C213.122 46.1938 211.783 45.6508 210.14 45.6508C206.834 45.6508 203.465 47.4677 203.465 50.8612C203.465 53.9519 206.175 55.9463 209.219 55.9463C211.542 55.9463 212.829 54.9021 213.634 53.6909H213.749V55.4764H217.087V46.6114C217.087 42.5079 214.011 40.2107 210.046 40.2107V40.2003ZM209.638 52.866C208.508 52.866 206.928 52.3021 206.928 50.903C206.928 49.1174 208.895 48.4283 210.59 48.4283C212.107 48.4283 212.829 48.752 213.749 49.201C213.477 51.3415 211.636 52.8555 209.638 52.8555V52.866ZM229.244 40.7015L225.279 50.7255H225.163L221.052 40.7015H217.327L223.5 54.7142L219.985 62.5141H223.594L233.104 40.7015H229.254H229.244ZM198.098 55.4973H201.561V32.369H198.098V55.4973Z" fill="white"/>
<path d="M38.2909 35.9299L18.5596 56.8341C18.5596 56.8341 18.5596 56.8341 18.5596 56.8445C19.1664 59.1103 21.2378 60.781 23.7069 60.781C24.6903 60.781 25.6214 60.5095 26.4061 60.0501L26.4688 60.0083L48.6797 47.2173L38.2804 35.9194L38.2909 35.9299Z" fill="#EA4335"/>
<path d="M58.2526 32.3691H58.2317L48.6381 26.8037L37.8308 36.3996L48.6694 47.2171L58.2108 41.7248C59.8847 40.8269 61.0146 39.0622 61.0146 37.0365C61.0146 35.0109 59.8952 33.2671 58.2422 32.3691H58.2526Z" fill="#FBBC04"/>
<path d="M18.5492 17.166C18.4341 17.6046 18.3713 18.064 18.3713 18.5339V55.4764C18.3713 55.9463 18.4341 56.4058 18.5492 56.8443L38.9606 36.4726L18.5492 17.166Z" fill="#4285F4"/>
<path d="M38.4374 36.9948L48.6483 26.8037L26.4584 13.9605C25.6528 13.4802 24.7112 13.1982 23.7069 13.1982C21.2378 13.1982 19.1664 14.8689 18.5596 17.1452L38.4374 36.9843V36.9948Z" fill="#34A853"/>
</g>
<defs>
<clipPath id="clip0_363_1849">
<rect width="250" height="74" fill="white"/>
</clipPath>
</defs>
</svg>
